<mxfile host="65bd71144e">
    <diagram id="MJYxTz9zbZZzLRWRzxXT" name="Page-1">
        <mxGraphModel dx="640" dy="540" grid="1" gridSize="10" guides="1" tooltips="1" connect="1" arrows="1" fold="1" page="1" pageScale="1" pageWidth="850" pageHeight="1100" math="0" shadow="0">
            <root>
                <mxCell id="0"/>
                <mxCell id="1" parent="0"/>
                <mxCell id="35" value="foreach" style="shape=umlFrame;whiteSpace=wrap;html=1;fillColor=#1ba1e2;fontColor=#ffffff;strokeColor=#006EAF;" parent="1" vertex="1">
                    <mxGeometry x="20" y="170" width="540" height="400" as="geometry"/>
                </mxCell>
                <mxCell id="20" value=":Cliente" style="shape=umlLifeline;perimeter=lifelinePerimeter;whiteSpace=wrap;html=1;container=1;collapsible=0;recursiveResize=0;outlineConnect=0;fillColor=#1ba1e2;fontColor=#ffffff;strokeColor=#006EAF;movable=1;resizable=1;rotatable=1;deletable=1;editable=1;connectable=1;" parent="1" vertex="1">
                    <mxGeometry x="60" y="80" width="90" height="520" as="geometry"/>
                </mxCell>
                <mxCell id="36" value="alt" style="shape=umlFrame;whiteSpace=wrap;html=1;fillColor=#1ba1e2;fontColor=#ffffff;strokeColor=#006EAF;" parent="20" vertex="1">
                    <mxGeometry x="-30" y="160" width="530" height="200" as="geometry"/>
                </mxCell>
                <mxCell id="21" value="" style="html=1;points=[];perimeter=orthogonalPerimeter;fillColor=#1ba1e2;fontColor=#ffffff;strokeColor=#006EAF;" parent="20" vertex="1">
                    <mxGeometry x="40" y="50" width="10" height="450" as="geometry"/>
                </mxCell>
                <mxCell id="41" value="[disponible]" style="text;html=1;strokeColor=none;fillColor=none;align=left;verticalAlign=middle;whiteSpace=wrap;rounded=0;fontColor=#006EAF;labelBackgroundColor=none;" parent="20" vertex="1">
                    <mxGeometry x="-26" y="190" width="60" height="30" as="geometry"/>
                </mxCell>
                <mxCell id="42" value="[!disponible]" style="text;html=1;strokeColor=none;fillColor=none;align=left;verticalAlign=middle;whiteSpace=wrap;rounded=0;fontColor=#006EAF;labelBackgroundColor=none;" parent="20" vertex="1">
                    <mxGeometry x="-26" y="300" width="50" height="30" as="geometry"/>
                </mxCell>
                <mxCell id="22" value=":Carrito" style="shape=umlLifeline;perimeter=lifelinePerimeter;whiteSpace=wrap;html=1;container=1;collapsible=0;recursiveResize=0;outlineConnect=0;fillColor=#1ba1e2;fontColor=#ffffff;strokeColor=#006EAF;" parent="1" vertex="1">
                    <mxGeometry x="240" y="120" width="100" height="480" as="geometry"/>
                </mxCell>
                <mxCell id="23" value="" style="html=1;points=[];perimeter=orthogonalPerimeter;fillColor=#1ba1e2;fontColor=#ffffff;strokeColor=#006EAF;" parent="22" vertex="1">
                    <mxGeometry x="45" y="50" width="10" height="410" as="geometry"/>
                </mxCell>
                <mxCell id="24" value="Agregar artículo(id)" style="endArrow=open;endFill=1;endSize=12;html=1;startArrow=none;fillColor=#1ba1e2;strokeColor=#006EAF;fontColor=#006EAF;labelBackgroundColor=none;" parent="22" source="23" target="22" edge="1">
                    <mxGeometry x="NaN" y="206" width="160" relative="1" as="geometry">
                        <mxPoint x="-140" y="80" as="sourcePoint"/>
                        <mxPoint x="11" y="79.99999999999989" as="targetPoint"/>
                        <mxPoint x="-89" y="-185" as="offset"/>
                    </mxGeometry>
                </mxCell>
                <mxCell id="25" value="Agregar producto(id)" style="endArrow=open;endFill=1;endSize=12;html=1;rounded=0;fillColor=#1ba1e2;strokeColor=#006EAF;fontColor=#006EAF;labelBackgroundColor=none;exitX=1.1;exitY=0.221;exitDx=0;exitDy=0;exitPerimeter=0;" parent="22" target="23" edge="1" source="23">
                    <mxGeometry x="0.0526" y="60" width="160" relative="1" as="geometry">
                        <mxPoint x="60" y="140" as="sourcePoint"/>
                        <mxPoint x="55" y="200" as="targetPoint"/>
                        <Array as="points">
                            <mxPoint x="80" y="140"/>
                            <mxPoint x="80" y="160"/>
                            <mxPoint x="80" y="180"/>
                        </Array>
                        <mxPoint as="offset"/>
                    </mxGeometry>
                </mxCell>
                <mxCell id="32" value="Bajar del stock(id)" style="endArrow=open;endFill=1;endSize=12;html=1;fillColor=#1ba1e2;strokeColor=#006EAF;fontColor=#006EAF;labelBackgroundColor=none;" parent="22" target="27" edge="1">
                    <mxGeometry y="15" width="160" relative="1" as="geometry">
                        <mxPoint x="55" y="210" as="sourcePoint"/>
                        <mxPoint x="245" y="210" as="targetPoint"/>
                        <mxPoint as="offset"/>
                    </mxGeometry>
                </mxCell>
                <mxCell id="26" value=":Stock" style="shape=umlLifeline;perimeter=lifelinePerimeter;whiteSpace=wrap;html=1;container=1;collapsible=0;recursiveResize=0;outlineConnect=0;fillColor=#1ba1e2;fontColor=#ffffff;strokeColor=#006EAF;" parent="1" vertex="1">
                    <mxGeometry x="480" y="80" width="100" height="390" as="geometry"/>
                </mxCell>
                <mxCell id="27" value="" style="html=1;points=[];perimeter=orthogonalPerimeter;fillColor=#1ba1e2;fontColor=#ffffff;strokeColor=#006EAF;" parent="26" vertex="1">
                    <mxGeometry x="45" y="110" width="10" height="180" as="geometry"/>
                </mxCell>
                <mxCell id="28" value="" style="endArrow=open;endFill=1;endSize=12;html=1;exitX=0.972;exitY=0.037;exitDx=0;exitDy=0;exitPerimeter=0;fillColor=#1ba1e2;strokeColor=#006EAF;dashed=1;" parent="1" source="21" edge="1">
                    <mxGeometry width="160" relative="1" as="geometry">
                        <mxPoint x="250" y="280" as="sourcePoint"/>
                        <mxPoint x="240" y="147" as="targetPoint"/>
                    </mxGeometry>
                </mxCell>
                <mxCell id="29" value="disponible=Comprobar disponibilidad(id)" style="endArrow=open;endFill=1;endSize=12;html=1;fillColor=#1ba1e2;strokeColor=#006EAF;fontColor=#006EAF;labelBackgroundColor=none;" parent="1" edge="1">
                    <mxGeometry x="0.0316" y="10" width="160" relative="1" as="geometry">
                        <mxPoint x="295" y="226" as="sourcePoint"/>
                        <mxPoint x="525" y="226" as="targetPoint"/>
                        <Array as="points">
                            <mxPoint x="320" y="226"/>
                        </Array>
                        <mxPoint as="offset"/>
                    </mxGeometry>
                </mxCell>
                <mxCell id="30" value="" style="endArrow=open;endFill=0;endSize=12;html=1;startArrow=none;startFill=0;fillColor=#1ba1e2;strokeColor=#006EAF;fontColor=#006EAF;labelBackgroundColor=none;" parent="1" edge="1">
                    <mxGeometry width="160" relative="1" as="geometry">
                        <mxPoint x="110" y="200" as="sourcePoint"/>
                        <mxPoint x="285" y="199.9999999999999" as="targetPoint"/>
                    </mxGeometry>
                </mxCell>
                <mxCell id="33" value="Carrito actualizado" style="endArrow=open;endSize=12;dashed=1;html=1;exitX=0.1;exitY=0.438;exitDx=0;exitDy=0;exitPerimeter=0;fillColor=#1ba1e2;strokeColor=#006EAF;fontColor=#006EAF;labelBackgroundColor=none;" parent="1" source="23" target="21" edge="1">
                    <mxGeometry width="160" relative="1" as="geometry">
                        <mxPoint x="200" y="410" as="sourcePoint"/>
                        <mxPoint x="305" y="272" as="targetPoint"/>
                    </mxGeometry>
                </mxCell>
                <mxCell id="34" value="Guardar" style="endArrow=open;endFill=0;endSize=12;html=1;startArrow=none;startFill=0;fillColor=#1ba1e2;strokeColor=#006EAF;fontColor=#006EAF;labelBackgroundColor=none;entryX=-0.1;entryY=0.851;entryDx=0;entryDy=0;entryPerimeter=0;" parent="1" source="21" target="23" edge="1">
                    <mxGeometry x="-0.0217" y="9" width="160" relative="1" as="geometry">
                        <mxPoint x="95" y="470" as="sourcePoint"/>
                        <mxPoint x="286.08000000000004" y="429.41999999999996" as="targetPoint"/>
                        <mxPoint as="offset"/>
                    </mxGeometry>
                </mxCell>
                <mxCell id="37" value="" style="line;strokeWidth=1;fillColor=#1ba1e2;align=left;verticalAlign=middle;spacingTop=-1;spacingLeft=3;spacingRight=3;rotatable=0;labelPosition=right;points=[];portConstraint=eastwest;strokeColor=#006EAF;fontColor=#ffffff;" parent="1" vertex="1">
                    <mxGeometry x="30" y="370" width="520" height="8" as="geometry"/>
                </mxCell>
                <mxCell id="39" value="Sin stock" style="endArrow=open;endSize=12;dashed=1;html=1;fillColor=#1ba1e2;strokeColor=#006EAF;fontColor=#006EAF;labelBackgroundColor=none;" parent="1" target="21" edge="1">
                    <mxGeometry y="-12" width="160" relative="1" as="geometry">
                        <mxPoint x="290" y="420" as="sourcePoint"/>
                        <mxPoint x="115" y="368.02" as="targetPoint"/>
                        <mxPoint as="offset"/>
                    </mxGeometry>
                </mxCell>
                <mxCell id="40" value="[artículo]" style="text;html=1;strokeColor=none;fillColor=none;align=center;verticalAlign=middle;whiteSpace=wrap;rounded=0;fontColor=#006EAF;" parent="1" vertex="1">
                    <mxGeometry x="20" y="200" width="60" height="30" as="geometry"/>
                </mxCell>
                <mxCell id="43" value="alt" style="shape=umlFrame;whiteSpace=wrap;html=1;fillColor=#1ba1e2;fontColor=#ffffff;strokeColor=#006EAF;" vertex="1" parent="1">
                    <mxGeometry x="30" y="450" width="520" height="110" as="geometry"/>
                </mxCell>
                <mxCell id="44" value="[artículo agregado]" style="text;html=1;strokeColor=none;fillColor=none;align=left;verticalAlign=middle;whiteSpace=wrap;rounded=0;fontColor=#006EAF;labelBackgroundColor=none;" vertex="1" parent="1">
                    <mxGeometry x="35" y="480" width="60" height="30" as="geometry"/>
                </mxCell>
            </root>
        </mxGraphModel>
    </diagram>
</mxfile>